<svg xmlns="http://www.w3.org/2000/svg" version="1.1" xmlns:xlink="http://www.w3.org/1999/xlink" xmlns:svgjs="http://svgjs.dev/svgjs" width="1000" height="1000" viewBox="0 0 1000 1000"><rect width="1000" height="1000" fill="#ffffff"></rect><g transform="matrix(0.7,0,0,0.7,149.57575757575756,344.91322687892784)"><svg viewBox="0 0 396 176" data-background-color="#333366" preserveAspectRatio="xMidYMid meet" height="444" width="1000" xmlns="http://www.w3.org/2000/svg" xmlns:xlink="http://www.w3.org/1999/xlink"><g id="tight-bounds" transform="matrix(1,0,0,1,0.2400000000000091,-0.17737429437352148)"><svg viewBox="0 0 395.52 176.35474858874704" height="176.35474858874704" width="395.52"><g><svg viewBox="0 0 395.52 176.35474858874704" height="176.35474858874704" width="395.52"><g transform="matrix(1,0,0,1,0,129.47797303625205)"><svg viewBox="0 0 395.52 46.87677555249499" height="46.87677555249499" width="395.52"><g id="textblocktransform"><svg viewBox="0 0 395.52 46.87677555249499" height="46.87677555249499" width="395.52" id="textblock"><g><svg viewBox="0 0 395.52 29.785218914185638" height="29.785218914185638" width="395.52"><g transform="matrix(1,0,0,1,0,0)"><svg width="395.52" viewBox="1.25 -36.25 485.6800231933594 36.7400016784668" height="29.785218914185638" data-palette-color="#ffff33"><g class="undefined-text-0" data-fill-palette-color="primary" id="text-0"><path d="M19.6-27.81L19.6 0 9.96 0 9.96-27.81 1.25-27.81 1.25-35.69 28.3-35.69 28.3-27.81 19.6-27.81ZM63.99-35.69L63.99 0 54.29 0 54.29-14.55 43.09-14.55 43.09 0 33.4 0 33.4-35.69 43.09-35.69 43.09-22.46 54.29-22.46 54.29-35.69 63.99-35.69ZM92.89-7.86L92.89 0 71.7 0 71.7-35.69 92.89-35.69 92.89-27.95 81.34-27.95 81.34-22.34 92.04-22.34 92.04-14.6 81.34-14.6 81.34-7.86 92.89-7.86Z" fill="#000000" data-fill-palette-color="primary"></path><path d="M106.24-13.4L106.24 0 96.75 0 96.75-35.69 117.84-35.69 117.84-27.95 106.24-27.95 106.24-21.14 116.94-21.14 116.94-13.4 106.24-13.4ZM144.89-7.86L144.89 0 123.7 0 123.7-35.69 144.89-35.69 144.89-27.95 133.34-27.95 133.34-22.34 144.03-22.34 144.03-14.6 133.34-14.6 133.34-7.86 144.89-7.86ZM172.33-7.86L172.33 0 151.14 0 151.14-35.69 172.33-35.69 172.33-27.95 160.78-27.95 160.78-22.34 171.47-22.34 171.47-14.6 160.78-14.6 160.78-7.86 172.33-7.86ZM208.87-18.6L208.87-18.6Q208.87-9.67 203.95-4.83 199.03 0 190.12 0L190.12 0 178.58 0 178.58-35.69 190.93-35.69Q199.52-35.69 204.2-31.3 208.87-26.9 208.87-18.6ZM198.86-18.26L198.86-18.26Q198.86-23.17 196.92-25.54 194.98-27.91 191.03-27.91L191.03-27.91 188.22-27.91 188.22-7.91 190.37-7.91Q194.76-7.91 196.81-10.46 198.86-13.01 198.86-18.26ZM215.27 0L215.27-35.69 227.72-35.69Q234.99-35.69 238.52-33.53 242.05-31.37 242.05-26.81L242.05-26.81Q242.05-23.8 240.51-21.68 238.97-19.56 236.46-18.95L236.46-18.95 236.46-18.7Q239.78-17.82 241.27-15.77 242.76-13.72 242.76-10.45L242.76-10.45Q242.76-5.59 239.11-2.8 235.46 0 229.16 0L229.16 0 215.27 0ZM224.91-28.39L224.91-22 227.82-22Q229.89-22 231.03-22.85 232.16-23.71 232.16-25.39L232.16-25.39Q232.16-28.39 227.62-28.39L227.62-28.39 224.91-28.39ZM228.11-14.94L224.91-14.94 224.91-7.45 228.3-7.45Q232.82-7.45 232.82-11.25L232.82-11.25Q232.82-13.04 231.61-13.99 230.4-14.94 228.11-14.94L228.11-14.94ZM281.4 0L270.86 0 269.1-6.69 257.5-6.69 255.69 0 245.1 0 256.74-35.84 269.61-35.84 281.4 0ZM259.5-14.6L267.1-14.6 265.56-20.46Q265.02-22.41 264.25-25.51 263.48-28.61 263.24-29.96L263.24-29.96Q263.02-28.71 262.37-25.85 261.73-23 259.5-14.6L259.5-14.6ZM301.15-28.3L301.15-28.3Q297.71-28.3 295.78-25.48 293.85-22.66 293.85-17.7L293.85-17.7Q293.85-7.4 301.69-7.4L301.69-7.4Q304.06-7.4 306.28-8.06 308.5-8.72 310.75-9.64L310.75-9.64 310.75-1.49Q306.28 0.49 300.64 0.49L300.64 0.49Q292.56 0.49 288.25-4.2 283.94-8.89 283.94-17.75L283.94-17.75Q283.94-23.29 286.03-27.49 288.11-31.69 292.03-33.95 295.95-36.21 301.25-36.21L301.25-36.21Q307.04-36.21 312.31-33.69L312.31-33.69 309.35-26.1Q307.38-27.03 305.4-27.66 303.42-28.3 301.15-28.3ZM337.14-19.7L348.19 0 337.31 0 330.25-13.65 327.39-11.94 327.39 0 317.7 0 317.7-35.69 327.39-35.69 327.39-20.19Q328.13-21.63 330.35-24.76L330.35-24.76 337.84-35.69 348.39-35.69 337.14-19.7Z" fill="#000000" data-fill-palette-color="secondary"></path><path d="M375.64 0L352.25 0 352.25-35.69 361.89-35.69 361.89-7.79 375.64-7.79 375.64 0ZM414.74-17.9L414.74-17.9Q414.74-8.89 410.33-4.2 405.91 0.49 397.39 0.49L397.39 0.49Q388.99 0.49 384.51-4.22 380.03-8.94 380.03-17.94L380.03-17.94Q380.03-26.86 384.48-31.56 388.94-36.25 397.44-36.25L397.44-36.25Q405.96-36.25 410.35-31.59 414.74-26.93 414.74-17.9ZM390.18-17.9L390.18-17.9Q390.18-7.54 397.39-7.54L397.39-7.54Q401.05-7.54 402.82-10.06 404.59-12.57 404.59-17.9L404.59-17.9Q404.59-23.24 402.79-25.79 401-28.34 397.44-28.34L397.44-28.34Q390.18-28.34 390.18-17.9ZM454.59-17.9L454.59-17.9Q454.59-8.89 450.17-4.2 445.75 0.49 437.23 0.49L437.23 0.49Q428.83 0.49 424.35-4.22 419.87-8.94 419.87-17.94L419.87-17.94Q419.87-26.86 424.32-31.56 428.78-36.25 437.28-36.25L437.28-36.25Q445.8-36.25 450.19-31.59 454.59-26.93 454.59-17.9ZM430.03-17.9L430.03-17.9Q430.03-7.54 437.23-7.54L437.23-7.54Q440.89-7.54 442.66-10.06 444.43-12.57 444.43-17.9L444.43-17.9Q444.43-23.24 442.64-25.79 440.84-28.34 437.28-28.34L437.28-28.34Q430.03-28.34 430.03-17.9ZM486.93-24.34L486.93-24.34Q486.93-18.36 483.4-15.1 479.88-11.84 473.38-11.84L473.38-11.84 470.67-11.84 470.67 0 461.03 0 461.03-35.69 473.38-35.69Q480.15-35.69 483.54-32.74 486.93-29.79 486.93-24.34ZM470.67-27.91L470.67-19.7 472.43-19.7Q474.6-19.7 475.88-20.92 477.17-22.14 477.17-24.29L477.17-24.29Q477.17-27.91 473.16-27.91L473.16-27.91 470.67-27.91Z" fill="#000000" data-fill-palette-color="primary"></path></g></svg></g></svg></g><g transform="matrix(1,0,0,1,0,36.81679425457093)"><svg viewBox="0 0 395.52 10.059981297924066" height="10.059981297924066" width="395.52"><g transform="matrix(1,0,0,1,0,0)"><svg width="395.52" viewBox="1.5 -33.5 1336.75 34" height="10.059981297924066" data-palette-color="#ffffff"><path d="M12.3 0L1.5 0 1.5-0.8 4.65-2.45 17.5-33.25 20.25-33.25 32.95-2.6 36.3-0.8 36.3 0 23.1 0 23.1-0.8 27.5-2.55 23.8-11.55 11.75-11.55 8.1-2.5 12.3-0.8 12.3 0ZM17.8-26.35L12.9-14.3 22.7-14.3 17.8-26.35ZM63.6 0.5L63.6 0.5Q60.45 0.5 58.23-0.1 56-0.7 53.65-1.85L53.65-1.85 53.15-10.1 53.95-10.1 56.6-4.65Q58.35-3.2 60.05-2.55 61.75-1.9 63.45-1.9L63.45-1.9Q66.35-1.9 68.03-3.4 69.7-4.9 69.7-7.5L69.7-7.5Q69.7-9.55 68.78-10.78 67.85-12 66.03-12.98 64.2-13.95 61.55-15.25L61.55-15.25Q58-16.95 56.1-18.82 54.2-20.7 54.2-24.1L54.2-24.1Q54.2-25.9 55.08-27.58 55.95-29.25 57.45-30.58 58.95-31.9 60.8-32.7 62.65-33.5 64.65-33.5L64.65-33.5Q67-33.5 69.05-32.95 71.1-32.4 73.1-31.35L73.1-31.35 73.6-23.35 72.8-23.35 70.2-28.7Q68.6-29.95 67.3-30.5 66-31.05 64.35-31.05L64.35-31.05Q62.2-31.05 60.78-29.6 59.35-28.15 59.35-25.95L59.35-25.95Q59.35-23.5 60.88-22.1 62.4-20.7 65.8-19.1L65.8-19.1Q68.8-17.65 70.78-16.32 72.75-15 73.7-13.35 74.65-11.7 74.65-9.15L74.65-9.15Q74.65-6.8 73.65-5 72.65-3.2 71-1.98 69.35-0.75 67.43-0.13 65.5 0.5 63.6 0.5ZM102.05 0L86.7 0 86.7-0.8 91.75-2.8 91.75-30.25 83.85-30.25 80.3-22.7 79.5-22.7 79.5-33 109.2-33 109.2-22.7 108.4-22.7 104.9-30.25 96.95-30.25 96.95-2.8 102.05-0.8 102.05 0ZM140.85 0L114.35 0 114.35-0.8 118.4-2.8 118.4-30.2 114.35-32.2 114.35-33 139.45-33 139.45-24.4 138.65-24.4 135.4-30.25 123.65-30.25 123.65-18.4 131.95-18.4 134.5-22.6 135.3-22.6 135.3-11.55 134.5-11.55 131.95-15.65 123.65-15.65 123.65-2.75 136.75-2.75 140.05-9.35 140.85-9.35 140.85 0ZM161.2 0L147.3 0 147.3-0.8 151.35-2.8 151.35-30.2 147.3-32.2 147.3-33 161.3-33Q167.2-33 170.78-30.85 174.35-28.7 174.35-24.05L174.35-24.05Q174.35-21.3 172.48-19.18 170.6-17.05 167.4-15.83 164.2-14.6 160.1-14.6L160.1-14.6 156.6-14.6 156.6-2.8 161.2-0.8 161.2 0ZM160.05-30.25L156.6-30.25 156.6-17.25 160.4-17.25Q164.35-17.25 166.6-19.05 168.85-20.85 168.85-23.65L168.85-23.65Q168.85-27.15 166.58-28.7 164.3-30.25 160.05-30.25L160.05-30.25ZM213.95 0L198.6 0 198.6-0.8 203.65-2.8 203.65-30.25 195.75-30.25 192.2-22.7 191.4-22.7 191.4-33 221.1-33 221.1-22.7 220.3-22.7 216.8-30.25 208.85-30.25 208.85-2.8 213.95-0.8 213.95 0ZM243.3 0.5L243.3 0.5Q239.7 0.5 236.63-0.78 233.55-2.05 231.28-4.33 229-6.6 227.75-9.7 226.5-12.8 226.5-16.5L226.5-16.5Q226.5-20.2 227.75-23.3 229-26.4 231.28-28.68 233.55-30.95 236.63-32.23 239.7-33.5 243.3-33.5L243.3-33.5Q246.9-33.5 249.97-32.23 253.05-30.95 255.32-28.68 257.6-26.4 258.88-23.3 260.15-20.2 260.15-16.5L260.15-16.5Q260.15-12.8 258.88-9.7 257.6-6.6 255.32-4.33 253.05-2.05 249.97-0.78 246.9 0.5 243.3 0.5ZM244.3-2L244.3-2Q247.35-2 249.65-3.6 251.95-5.2 253.25-8.1 254.55-11 254.55-14.95L254.55-14.95Q254.55-19.8 252.95-23.43 251.35-27.05 248.6-29.05 245.85-31.05 242.5-31.05L242.5-31.05Q239.45-31.05 237.1-29.48 234.75-27.9 233.43-25 232.1-22.1 232.1-18.15L232.1-18.15Q232.1-13.3 233.72-9.65 235.35-6 238.13-4 240.9-2 244.3-2ZM292.45 0L279.1 0 279.1-0.8 283.2-2.8 283.2-30.2 279.1-32.2 279.1-33 292.45-33 292.45-32.2 288.4-30.2 288.4-2.8 292.45-0.8 292.45 0ZM309.75 0L298.45 0 298.45-0.8 302.45-2.8 303.5-30.2 299.2-32.2 299.2-33 309.15-33 320.35-7.15 331.5-33 341.05-33 341.05-32.2 336.8-30.35 337.65-2.8 341.25-0.8 341.25 0 328.9 0 328.9-0.8 332.65-2.75 332.15-27.2 320.35 0.25 317.95 0.25 306.25-26.9 305.6-2.75 309.75-0.8 309.75 0ZM360.95 0L347.05 0 347.05-0.8 351.1-2.8 351.1-30.2 347.05-32.2 347.05-33 361.05-33Q366.95-33 370.52-30.85 374.1-28.7 374.1-24.05L374.1-24.05Q374.1-21.3 372.22-19.18 370.35-17.05 367.15-15.83 363.95-14.6 359.85-14.6L359.85-14.6 356.35-14.6 356.35-2.8 360.95-0.8 360.95 0ZM359.8-30.25L356.35-30.25 356.35-17.25 360.15-17.25Q364.1-17.25 366.35-19.05 368.6-20.85 368.6-23.65L368.6-23.65Q368.6-27.15 366.32-28.7 364.05-30.25 359.8-30.25L359.8-30.25ZM392.55 0L379.5 0 379.5-0.8 383.55-2.8 383.55-30.2 379.5-32.2 379.5-33 393.4-33Q398.65-33 401.67-30.83 404.7-28.65 404.7-24.85L404.7-24.85Q404.7-22.05 402.8-19.9 400.9-17.75 397.8-16.6L397.8-16.6 407.25-2.65 410.6-0.8 410.6 0 402.55 0 392.95-15.2 388.8-15.2 388.8-2.85 392.55-0.8 392.55 0ZM391.75-30.25L391.75-30.25 388.8-30.25 388.8-17.85 392.05-17.85Q395.15-17.85 397.17-19.63 399.2-21.4 399.2-24.15L399.2-24.15Q399.2-27 397.22-28.63 395.25-30.25 391.75-30.25ZM430.4 0.5L430.4 0.5Q426.8 0.5 423.72-0.78 420.65-2.05 418.37-4.33 416.1-6.6 414.85-9.7 413.6-12.8 413.6-16.5L413.6-16.5Q413.6-20.2 414.85-23.3 416.1-26.4 418.37-28.68 420.65-30.95 423.72-32.23 426.8-33.5 430.4-33.5L430.4-33.5Q434-33.5 437.07-32.23 440.15-30.95 442.42-28.68 444.7-26.4 445.97-23.3 447.25-20.2 447.25-16.5L447.25-16.5Q447.25-12.8 445.97-9.7 444.7-6.6 442.42-4.33 440.15-2.05 437.07-0.78 434 0.5 430.4 0.5ZM431.4-2L431.4-2Q434.45-2 436.75-3.6 439.05-5.2 440.35-8.1 441.65-11 441.65-14.95L441.65-14.95Q441.65-19.8 440.05-23.43 438.45-27.05 435.7-29.05 432.95-31.05 429.6-31.05L429.6-31.05Q426.55-31.05 424.2-29.48 421.85-27.9 420.52-25 419.2-22.1 419.2-18.15L419.2-18.15Q419.2-13.3 420.82-9.65 422.45-6 425.22-4 428-2 431.4-2ZM470.3 0.25L468.3 0.25 455.5-30.4 452.05-32.2 452.05-33 465.3-33 465.3-32.2 460.95-30.3 470.3-7.8 470.55-7.8 479.8-30.45 475.65-32.2 475.65-33 486.2-33 486.2-32.2 483.35-30.65 470.3 0.25ZM517.3 0L490.8 0 490.8-0.8 494.85-2.8 494.85-30.2 490.8-32.2 490.8-33 515.9-33 515.9-24.4 515.1-24.4 511.85-30.25 500.1-30.25 500.1-18.4 508.4-18.4 510.95-22.6 511.75-22.6 511.75-11.55 510.95-11.55 508.4-15.65 500.1-15.65 500.1-2.75 513.2-2.75 516.5-9.35 517.3-9.35 517.3 0ZM557.95 0L542.6 0 542.6-0.8 547.65-2.8 547.65-30.25 539.75-30.25 536.2-22.7 535.4-22.7 535.4-33 565.1-33 565.1-22.7 564.3-22.7 560.8-30.25 552.85-30.25 552.85-2.8 557.95-0.8 557.95 0ZM583.5 0L570.25 0 570.25-0.8 574.3-2.8 574.3-30.2 570.25-32.2 570.25-33 583.5-33 583.5-32.2 579.55-30.2 579.55-18.4 595.8-18.4 595.8-30.2 591.8-32.2 591.8-33 605.05-33 605.05-32.2 601-30.2 601-2.8 605.05-0.8 605.05 0 591.8 0 591.8-0.8 595.8-2.8 595.8-15.65 579.55-15.65 579.55-2.8 583.5-0.8 583.5 0ZM637.55 0L611.05 0 611.05-0.8 615.1-2.8 615.1-30.2 611.05-32.2 611.05-33 636.15-33 636.15-24.4 635.35-24.4 632.1-30.25 620.35-30.25 620.35-18.4 628.65-18.4 631.2-22.6 632-22.6 632-11.55 631.2-11.55 628.65-15.65 620.35-15.65 620.35-2.75 633.45-2.75 636.75-9.35 637.55-9.35 637.55 0ZM683 0L656.5 0 656.5-0.8 660.55-2.8 660.55-30.2 656.5-32.2 656.5-33 681.6-33 681.6-24.4 680.8-24.4 677.55-30.25 665.8-30.25 665.8-18.4 674.1-18.4 676.65-22.6 677.45-22.6 677.45-11.55 676.65-11.55 674.1-15.65 665.8-15.65 665.8-2.75 678.9-2.75 682.2-9.35 683-9.35 683 0ZM703.35 0L689.45 0 689.45-0.8 693.5-2.8 693.5-30.2 689.45-32.2 689.45-33 714.05-33 714.05-24.4 713.25-24.4 710.1-30.25 698.75-30.25 698.75-18.35 706.55-18.35 709.1-22.55 709.9-22.55 709.9-11.6 709.1-11.6 706.55-15.7 698.75-15.7 698.75-2.8 703.35-0.8 703.35 0ZM734.25 0L720.35 0 720.35-0.8 724.4-2.8 724.4-30.2 720.35-32.2 720.35-33 744.95-33 744.95-24.4 744.15-24.4 741-30.25 729.65-30.25 729.65-18.35 737.45-18.35 740-22.55 740.8-22.55 740.8-11.6 740-11.6 737.45-15.7 729.65-15.7 729.65-2.8 734.25-0.8 734.25 0ZM764.8 0L751.45 0 751.45-0.8 755.55-2.8 755.55-30.2 751.45-32.2 751.45-33 764.8-33 764.8-32.2 760.75-30.2 760.75-2.8 764.8-0.8 764.8 0ZM788 0.5L788 0.5Q782.85 0.5 779.1-1.6 775.35-3.7 773.3-7.35 771.25-11 771.25-15.65L771.25-15.65Q771.25-19.25 772.65-22.45 774.05-25.65 776.48-28.15 778.9-30.65 782.05-32.08 785.2-33.5 788.75-33.5L788.75-33.5Q791.3-33.5 793.05-33.18 794.8-32.85 796.17-32.33 797.55-31.8 798.95-31.1L798.95-31.1 799.25-22.2 798.35-22.2 794.9-28.7Q793.2-29.9 791.83-30.45 790.45-31 788.75-31L788.75-31Q785.3-31 782.55-29.2 779.8-27.4 778.23-24.23 776.65-21.05 776.65-16.9L776.65-16.9Q776.65-12.25 778.17-8.93 779.7-5.6 782.3-3.85 784.9-2.1 788.05-2.1L788.05-2.1Q790.65-2.1 792.42-2.8 794.2-3.5 795.6-4.45L795.6-4.45 798.95-10.05 799.8-10.05 799.2-2Q797-0.9 794.5-0.2 792 0.5 788 0.5ZM820.65 0L807.3 0 807.3-0.8 811.4-2.8 811.4-30.2 807.3-32.2 807.3-33 820.65-33 820.65-32.2 816.6-30.2 816.6-2.8 820.65-0.8 820.65 0ZM853.35 0L826.85 0 826.85-0.8 830.9-2.8 830.9-30.2 826.85-32.2 826.85-33 851.95-33 851.95-24.4 851.15-24.4 847.9-30.25 836.15-30.25 836.15-18.4 844.45-18.4 847-22.6 847.8-22.6 847.8-11.55 847-11.55 844.45-15.65 836.15-15.65 836.15-2.75 849.25-2.75 852.55-9.35 853.35-9.35 853.35 0ZM872.3 0L859.6 0 859.6-0.8 863.65-2.8 863.65-30.1 859.65-32.2 859.65-33 867.5-33 886.65-9.45 886.65-30.25 881.5-32.2 881.5-33 894.15-33 894.15-32.2 890.15-30.25 890.15 0.25 888 0.25 867.15-25.35 867.15-2.75 872.3-0.8 872.3 0ZM916.95 0.5L916.95 0.5Q911.8 0.5 908.05-1.6 904.3-3.7 902.25-7.35 900.2-11 900.2-15.65L900.2-15.65Q900.2-19.25 901.6-22.45 903-25.65 905.43-28.15 907.85-30.65 911-32.08 914.15-33.5 917.7-33.5L917.7-33.5Q920.25-33.5 922-33.18 923.75-32.85 925.13-32.33 926.5-31.8 927.9-31.1L927.9-31.1 928.2-22.2 927.3-22.2 923.85-28.7Q922.15-29.9 920.78-30.45 919.4-31 917.7-31L917.7-31Q914.25-31 911.5-29.2 908.75-27.4 907.18-24.23 905.6-21.05 905.6-16.9L905.6-16.9Q905.6-12.25 907.13-8.93 908.65-5.6 911.25-3.85 913.85-2.1 917-2.1L917-2.1Q919.6-2.1 921.38-2.8 923.15-3.5 924.55-4.45L924.55-4.45 927.9-10.05 928.75-10.05 928.15-2Q925.95-0.9 923.45-0.2 920.95 0.5 916.95 0.5ZM958.5 0L944.3 0 944.3-0.8 948.8-2.8 948.8-15.4 937.75-30.45 934.6-32.2 934.6-33 947.5-33 947.5-32.2 943.85-30.4 943.85-30.2 952.7-18.15 960.7-30.15 960.7-30.35 957-32.2 957-33 967.8-33 967.8-32.2 964.55-30.55 954-15.45 954-2.8 958.5-0.8 958.5 0ZM1001.95 0.5L1001.95 0.5Q998.35 0.5 995.28-0.78 992.2-2.05 989.93-4.33 987.65-6.6 986.4-9.7 985.15-12.8 985.15-16.5L985.15-16.5Q985.15-20.2 986.4-23.3 987.65-26.4 989.93-28.68 992.2-30.95 995.28-32.23 998.35-33.5 1001.95-33.5L1001.95-33.5Q1005.55-33.5 1008.63-32.23 1011.7-30.95 1013.98-28.68 1016.25-26.4 1017.53-23.3 1018.8-20.2 1018.8-16.5L1018.8-16.5Q1018.8-12.8 1017.53-9.7 1016.25-6.6 1013.98-4.33 1011.7-2.05 1008.63-0.78 1005.55 0.5 1001.95 0.5ZM1002.95-2L1002.95-2Q1006-2 1008.3-3.6 1010.6-5.2 1011.9-8.1 1013.2-11 1013.2-14.95L1013.2-14.95Q1013.2-19.8 1011.6-23.43 1010-27.05 1007.25-29.05 1004.5-31.05 1001.15-31.05L1001.15-31.05Q998.1-31.05 995.75-29.48 993.4-27.9 992.08-25 990.75-22.1 990.75-18.15L990.75-18.15Q990.75-13.3 992.38-9.65 994-6 996.78-4 999.55-2 1002.95-2ZM1038.95 0L1025.05 0 1025.05-0.8 1029.1-2.8 1029.1-30.2 1025.05-32.2 1025.05-33 1049.65-33 1049.65-24.4 1048.85-24.4 1045.7-30.25 1034.35-30.25 1034.35-18.35 1042.15-18.35 1044.7-22.55 1045.5-22.55 1045.5-11.6 1044.7-11.6 1042.15-15.7 1034.35-15.7 1034.35-2.8 1038.95-0.8 1038.95 0ZM1090.15 0L1074.8 0 1074.8-0.8 1079.85-2.8 1079.85-30.25 1071.95-30.25 1068.4-22.7 1067.6-22.7 1067.6-33 1097.3-33 1097.3-22.7 1096.5-22.7 1093-30.25 1085.05-30.25 1085.05-2.8 1090.15-0.8 1090.15 0ZM1128.95 0L1102.45 0 1102.45-0.8 1106.5-2.8 1106.5-30.2 1102.45-32.2 1102.45-33 1127.55-33 1127.55-24.4 1126.75-24.4 1123.5-30.25 1111.75-30.25 1111.75-18.4 1120.05-18.4 1122.6-22.6 1123.4-22.6 1123.4-11.55 1122.6-11.55 1120.05-15.65 1111.75-15.65 1111.75-2.75 1124.85-2.75 1128.15-9.35 1128.95-9.35 1128.95 0ZM1144.7 0L1133.9 0 1133.9-0.8 1137.05-2.45 1149.9-33.25 1152.65-33.25 1165.35-2.6 1168.7-0.8 1168.7 0 1155.5 0 1155.5-0.8 1159.9-2.55 1156.2-11.55 1144.15-11.55 1140.5-2.5 1144.7-0.8 1144.7 0ZM1150.2-26.35L1145.3-14.3 1155.1-14.3 1150.2-26.35ZM1190.2 0.5L1190.2 0.5Q1185.05 0.5 1181.3-1.6 1177.55-3.7 1175.5-7.35 1173.45-11 1173.45-15.65L1173.45-15.65Q1173.45-19.25 1174.85-22.45 1176.25-25.65 1178.67-28.15 1181.1-30.65 1184.25-32.08 1187.4-33.5 1190.95-33.5L1190.95-33.5Q1193.5-33.5 1195.25-33.18 1197-32.85 1198.38-32.33 1199.75-31.8 1201.15-31.1L1201.15-31.1 1201.45-22.2 1200.55-22.2 1197.1-28.7Q1195.4-29.9 1194.03-30.45 1192.65-31 1190.95-31L1190.95-31Q1187.5-31 1184.75-29.2 1182-27.4 1180.42-24.23 1178.85-21.05 1178.85-16.9L1178.85-16.9Q1178.85-12.25 1180.38-8.93 1181.9-5.6 1184.5-3.85 1187.1-2.1 1190.25-2.1L1190.25-2.1Q1192.85-2.1 1194.63-2.8 1196.4-3.5 1197.8-4.45L1197.8-4.45 1201.15-10.05 1202-10.05 1201.4-2Q1199.2-0.9 1196.7-0.2 1194.2 0.5 1190.2 0.5ZM1222.55 0L1209.3 0 1209.3-0.8 1213.35-2.8 1213.35-30.2 1209.3-32.2 1209.3-33 1222.55-33 1222.55-32.2 1218.6-30.2 1218.6-18.4 1234.85-18.4 1234.85-30.2 1230.85-32.2 1230.85-33 1244.1-33 1244.1-32.2 1240.05-30.2 1240.05-2.8 1244.1-0.8 1244.1 0 1230.85 0 1230.85-0.8 1234.85-2.8 1234.85-15.65 1218.6-15.65 1218.6-2.8 1222.55-0.8 1222.55 0ZM1276.6 0L1250.1 0 1250.1-0.8 1254.15-2.8 1254.15-30.2 1250.1-32.2 1250.1-33 1275.2-33 1275.2-24.4 1274.4-24.4 1271.15-30.25 1259.4-30.25 1259.4-18.4 1267.7-18.4 1270.25-22.6 1271.05-22.6 1271.05-11.55 1270.25-11.55 1267.7-15.65 1259.4-15.65 1259.4-2.75 1272.5-2.75 1275.8-9.35 1276.6-9.35 1276.6 0ZM1296.1 0L1283.05 0 1283.05-0.8 1287.1-2.8 1287.1-30.2 1283.05-32.2 1283.05-33 1296.95-33Q1302.2-33 1305.22-30.83 1308.25-28.65 1308.25-24.85L1308.25-24.85Q1308.25-22.05 1306.35-19.9 1304.45-17.75 1301.35-16.6L1301.35-16.6 1310.8-2.65 1314.15-0.8 1314.15 0 1306.1 0 1296.5-15.2 1292.35-15.2 1292.35-2.85 1296.1-0.8 1296.1 0ZM1295.3-30.25L1295.3-30.25 1292.35-30.25 1292.35-17.85 1295.6-17.85Q1298.7-17.85 1300.72-19.63 1302.75-21.4 1302.75-24.15L1302.75-24.15Q1302.75-27 1300.77-28.63 1298.8-30.25 1295.3-30.25ZM1327.2 0.5L1327.2 0.5Q1324.05 0.5 1321.82-0.1 1319.6-0.7 1317.25-1.85L1317.25-1.85 1316.75-10.1 1317.55-10.1 1320.2-4.65Q1321.95-3.2 1323.65-2.55 1325.35-1.9 1327.05-1.9L1327.05-1.9Q1329.95-1.9 1331.62-3.4 1333.3-4.9 1333.3-7.5L1333.3-7.5Q1333.3-9.55 1332.37-10.78 1331.45-12 1329.62-12.98 1327.8-13.95 1325.15-15.25L1325.15-15.25Q1321.6-16.95 1319.7-18.82 1317.8-20.7 1317.8-24.1L1317.8-24.1Q1317.8-25.9 1318.67-27.58 1319.55-29.25 1321.05-30.58 1322.55-31.9 1324.4-32.7 1326.25-33.5 1328.25-33.5L1328.25-33.5Q1330.6-33.5 1332.65-32.95 1334.7-32.4 1336.7-31.35L1336.7-31.35 1337.2-23.35 1336.4-23.35 1333.8-28.7Q1332.2-29.95 1330.9-30.5 1329.6-31.05 1327.95-31.05L1327.95-31.05Q1325.8-31.05 1324.37-29.6 1322.95-28.15 1322.95-25.95L1322.95-25.95Q1322.95-23.5 1324.47-22.1 1326-20.7 1329.4-19.1L1329.4-19.1Q1332.4-17.65 1334.37-16.32 1336.35-15 1337.3-13.35 1338.25-11.7 1338.25-9.15L1338.25-9.15Q1338.25-6.8 1337.25-5 1336.25-3.2 1334.6-1.98 1332.95-0.75 1331.02-0.13 1329.1 0.5 1327.2 0.5Z" opacity="1" transform="matrix(1,0,0,1,0,0)" fill="#000000" class="undefined-text-1" data-fill-palette-color="secondary" id="text-1"></path></svg></g></svg></g></svg></g></svg></g><g transform="matrix(1,0,0,1,140.05258882225925,0)"><svg viewBox="0 0 115.41482235548148 115.41482235548148" height="115.41482235548148" width="115.41482235548148"><g><svg></svg></g><g id="icon-0"><svg viewBox="0 0 115.41482235548148 115.41482235548148" height="115.41482235548148" width="115.41482235548148"><g><path d="M0 57.707c0-31.871 25.836-57.707 57.707-57.707 31.871 0 57.707 25.836 57.708 57.707 0 31.871-25.836 57.707-57.708 57.708-31.871 0-57.707-25.836-57.707-57.708zM57.707 112.729c30.387 0 55.021-24.634 55.022-55.022 0-30.387-24.634-55.021-55.022-55.021-30.387 0-55.021 24.634-55.021 55.021 0 30.387 24.634 55.021 55.021 55.022z" data-fill-palette-color="accent" fill="#000000" stroke="transparent"></path></g><g transform="matrix(1,0,0,1,23.140369269401887,31.7821297464866)"><svg viewBox="0 0 69.1340838166777 51.850562862508276" height="51.850562862508276" width="69.1340838166777"><g><svg xmlns="http://www.w3.org/2000/svg" xmlns:xlink="http://www.w3.org/1999/xlink" version="1.1" x="0" y="0" viewBox="0 0 100 75" style="enable-background:new 0 0 100 75;" xml:space="preserve" height="51.850562862508276" width="69.1340838166777" class="icon-s-0" data-fill-palette-color="accent" id="s-0"><path d="M87.5 43.75c0 3.442-2.808 6.25-6.25 6.25H24.976V37.5L0 56.25 24.976 75V62.5H81.25c10.34 0 18.75-8.423 18.75-18.75H87.5z" fill="#000000" data-fill-palette-color="accent"></path><path d="M18.75 25H75v12.5l25-18.75L75 0v12.5H18.75C8.41 12.5 0 20.898 0 31.25h12.5C12.5 27.808 15.308 25 18.75 25z" fill="#000000" data-fill-palette-color="accent"></path></svg></g></svg></g></svg></g></svg></g><g></g></svg></g><defs></defs></svg><rect width="395.52" height="176.35474858874704" fill="none" stroke="none" visibility="hidden"></rect></g></svg></g></svg>